HIERARCHY
ROOT Hips
{
  OFFSET 0.000000 0.000000 0.000000
  CHANNELS 6 Xposition Yposition Zposition Xrotation Yrotation Zrotation
  JOINT Spine
  {
    OFFSET 0.211591 24.227834 -3.764787
    CHANNELS 3 Xrotation Yrotation Zrotation
    JOINT Chest
    {
      OFFSET 0.211591 24.227834 -3.764787
      CHANNELS 3 Xrotation Yrotation Zrotation
      JOINT Neck
      {
        OFFSET -1.100772 8.441563 -3.430650
        CHANNELS 3 Xrotation Yrotation Zrotation
        JOINT Head
        {
          OFFSET -1.192129 7.757112 -7.601908
          CHANNELS 3 Xrotation Yrotation Zrotation
          End Site
          {
            OFFSET -0.357639 2.327134 -2.280572
          }
        }
      }
      JOINT LeftShoulder
      {
        OFFSET 17.192089 0.613400 -1.554494
        CHANNELS 3 Xrotation Yrotation Zrotation
        JOINT LeftArm
        {
          OFFSET 6.822346 -20.001605 -11.416031
          CHANNELS 3 Xrotation Yrotation Zrotation
          JOINT LeftForeArm
          {
            OFFSET -10.811707 -3.287858 -20.004664
            CHANNELS 3 Xrotation Yrotation Zrotation
            JOINT LeftHand
            {
              OFFSET -2.972239 -0.032078 -2.791873
              CHANNELS 3 Xrotation Yrotation Zrotation
              End Site
              {
                OFFSET -0.891672 -0.009623 -0.837562
              }
            }
          }
        }
      }
      JOINT RightShoulder
      {
        OFFSET -17.192089 -0.613400 1.554494
        CHANNELS 3 Xrotation Yrotation Zrotation
        JOINT RightArm
        {
          OFFSET -7.078612 -20.128798 -9.457155
          CHANNELS 3 Xrotation Yrotation Zrotation
          JOINT RightForeArm
          {
            OFFSET 6.068787 -1.370308 -22.325569
            CHANNELS 3 Xrotation Yrotation Zrotation
            JOINT RightHand
            {
              OFFSET 2.627653 0.279547 -3.282648
              CHANNELS 3 Xrotation Yrotation Zrotation
              End Site
              {
                OFFSET 0.788296 0.083864 -0.984794
              }
            }
          }
        }
      }
    }
  }
  JOINT LeftUpLeg
  {
    OFFSET 11.367086 0.027478 -2.758015
    CHANNELS 3 Xrotation Yrotation Zrotation
    JOINT LeftLeg
    {
      OFFSET 2.451199 -39.057141 -4.768226
      CHANNELS 3 Xrotation Yrotation Zrotation
      JOINT LeftFoot
      {
        OFFSET 10.058204 -39.973237 0.774249
        CHANNELS 3 Xrotation Yrotation Zrotation
        End Site
        {
          OFFSET 3.017461 -11.991971 0.232275
        }
      }
    }
  }
  JOINT RightUpLeg
  {
    OFFSET -11.367086 -0.027478 2.758015
    CHANNELS 3 Xrotation Yrotation Zrotation
    JOINT RightLeg
    {
      OFFSET -4.668361 -37.080477 -5.635053
      CHANNELS 3 Xrotation Yrotation Zrotation
      JOINT RightFoot
      {
        OFFSET -2.542494 -41.040053 5.594103
        CHANNELS 3 Xrotation Yrotation Zrotation
        End Site
        {
          OFFSET -0.762748 -12.312016 1.678231
        }
      }
    }
  }
}
MOTION
Frames: 7
Frame Time: 0.083333
0.000000 60.000000 0.000000 -0.947731 0.087041 0.456756 -9.780712 0.001355 -0.029465 -10.780343 0.147590 1.246813 -1.096270 -1.012926 -0.823959 5.000000 0.000000 0.000000 1.736840 0.323090 0.456205 7.645937 -0.590864 -0.773710 0.000000 0.000000 0.000000 0.000000 0.000000 0.000000 0.794111 -0.282190 0.002214 2.851025 -0.309081 0.159378 0.000000 0.000000 0.000000 0.000000 0.000000 0.000000 -0.842009 -0.037869 -0.138902 -2.162051 -0.530442 0.239047 0.000000 0.000000 0.000000 -3.345043 0.413070 0.052553 -1.598660 -0.038923 -0.839532 0.000000 0.000000 0.000000
0.404420 60.000000 1.105835 -0.697435 0.072172 0.388394 -9.530299 -0.005007 -0.099379 -10.588175 0.134774 1.160875 -0.987918 -1.328574 -1.138276 5.000000 0.000000 0.000000 1.727130 0.300571 0.481776 6.827943 -0.554870 -0.692341 0.000000 0.000000 0.000000 0.000000 0.000000 0.000000 1.046602 -0.311869 -0.114333 2.632807 -0.255006 0.145843 -11.576345 -1.605359 -7.606294 0.000000 0.000000 0.000000 -0.709012 -0.056665 0.112734 -2.064574 -0.498257 0.307541 0.000000 0.000000 0.000000 -2.846786 0.362367 -0.073015 -1.383120 -0.023124 -0.661185 0.000000 0.000000 0.000000
1.336399 60.000000 4.095054 -1.297711 0.155968 0.863712 -10.131267 0.034330 0.383304 -11.303043 0.088614 0.697450 -2.605943 -5.095475 -4.483274 5.000000 0.000000 0.000000 4.794206 0.739373 1.475076 17.060041 -1.466984 -1.734552 0.000000 0.000000 0.000000 0.000000 0.000000 0.000000 3.649363 -0.860225 -0.830601 6.692520 -0.622859 0.367945 -51.881578 -7.194719 -34.089047 0.000000 0.000000 0.000000 -1.570358 -0.224632 1.142407 -5.471480 -1.254193 1.622955 0.000000 0.000000 0.000000 -6.760352 0.902334 -0.652536 -3.438087 -0.020021 -1.404408 0.000000 0.000000 0.000000
2.260113 60.000000 8.201629 -0.519397 0.102127 0.610902 -9.352527 0.010036 0.124940 -10.952231 -0.067097 -0.543623 -3.217530 -10.855344 -9.817617 5.000000 0.000000 0.000000 6.650384 0.772036 2.415794 19.823885 -1.949415 -2.029175 0.000000 0.000000 0.000000 0.000000 0.000000 0.000000 6.869982 -0.923422 -2.827398 7.819136 -0.812956 0.423600 -73.021498 -14.201750 -64.523741 0.000000 0.000000 0.000000 -0.705970 -0.494326 3.725709 -6.932659 -1.367476 4.759228 0.000000 0.000000 0.000000 -7.149568 1.098971 -2.443550 -4.258186 0.063515 -1.145718 0.000000 0.000000 0.000000
2.612822 60.000000 12.603205 -0.718360 0.012630 0.045279 -9.550717 -0.038369 -0.447656 -11.103780 -0.222342 -1.832236 -2.402600 -14.846150 -13.926081 5.000000 0.000000 0.000000 6.906099 0.839514 2.429007 21.794850 -2.389009 -2.254487 0.000000 0.000000 0.000000 0.000000 0.000000 0.000000 8.444821 -0.206886 -5.047744 7.566195 -1.362591 0.409243 56.096240 -10.485649 -37.289464 0.000000 0.000000 0.000000 3.115328 -0.724711 5.772499 -6.885126 -1.091831 7.955547 0.000000 0.000000 0.000000 -8.259432 1.418493 -5.261918 -6.466915 -0.010914 -1.915712 0.000000 0.000000 0.000000
2.479909 60.000000 14.737109 -1.198781 -0.064741 -0.445162 -10.030445 -0.084115 -0.943987 -10.909875 -0.319131 -2.660187 1.251121 -15.792565 -16.353463 5.000000 0.000000 0.000000 6.640249 2.103659 0.252094 26.258675 -3.192661 -2.782663 0.000000 0.000000 0.000000 0.000000 0.000000 0.000000 10.116491 -1.092803 -4.455325 8.775586 -1.955291 0.451782 92.487065 -17.287913 -61.479932 0.000000 0.000000 0.000000 11.847397 -0.963644 7.416176 -7.172093 -1.300231 5.896885 0.000000 0.000000 0.000000 -10.119182 1.787477 -8.973350 -11.057097 -0.380296 -4.037288 0.000000 0.000000 0.000000
2.522454 60.000000 14.161507 -1.489170 -0.150913 -0.991462 -10.320043 -0.131870 -1.496908 -10.931245 -0.429670 -3.600373 3.515864 -17.786326 -19.355368 5.000000 0.000000 0.000000 3.164406 3.742121 -4.304008 30.540228 -3.536743 -3.317923 0.000000 0.000000 0.000000 0.000000 0.000000 0.000000 8.782881 -4.120402 1.484853 9.664541 -2.945604 0.448680 0.000000 0.000000 0.000000 0.000000 0.000000 0.000000 20.083977 -1.055040 7.726355 -5.898344 -1.112674 5.089765 0.000000 0.000000 0.000000 -12.441394 1.987287 -10.559612 -17.849107 -0.803467 -6.518230 0.000000 0.000000 0.000000
